<svg height="24" viewBox="0 0 86 24" width="86" xmlns="http://www.w3.org/2000/svg" xmlns:xlink="http://www.w3.org/1999/xlink"><linearGradient id="a" x1="50%" x2="50%" y1="0%" y2="100%"><stop offset="0" stop-color="#999"/><stop offset="1" stop-color="#999"/></linearGradient><g fill="none" fill-rule="evenodd"><g fill="#999" transform="translate(27.472222 .24)"><path d="m4.90440272 9.00543253v-1.17431653h-3.53825791v-7.78715073h-1.36614481v8.96146726zm2.84478222.11456747c.94505973 0 1.68243496-.29023758 2.2121257-.87071275.52969076-.58047517.79453606-1.38817581.79453606-2.42310193 0-1.00055587-.2667507-1.79584504-.80025215-2.3858675-.53350146-.59002245-1.25753916-.88503368-2.17211309-.88503368-.95649191 0-1.69767787.28832813-2.22355788.86498438s-.78882001 1.37862852-.78882001 2.4059168c0 .6606724.12194319 1.24114756.36582957 1.7414255s.59256769.88407896 1.04604393 1.15140305c.45347625.26732409.97554553.40098613 1.56620787.40098613zm.00590186-1.21863983c-1.0784351 0-1.51083327-.58775497-1.51083327-2.05039963 0-.69886155.10469966-1.19066627.35811285-1.56492.2534132-.37425372.57351407-.56223984 1.13750133-.56223984 1.07462437 0 1.51726387.64799837 1.51726387 2.09536737 0 1.46264466-.43504186 2.0821921-1.50204478 2.0821921zm6.4822707 1.21863983c.2515078 0 .4944415-.02195876.7288011-.06587629s.75827-.36420215.9068883-.42912371l-.4399848-.93398437c-.3277224.10311072-.5478814.34059343-.8756037.34059343-.26294 0-.4753879-.07733304-.6373437-.23199912s-.2429337-.39430303-.2429337-.71891085v-3.15119703h1.8005674l.2479759-1.00368175-2.0485433-.0159687.004107-1.82012505-1.2708469.42351563-.0193797 1.32786894-1.0681342.00593744-.009882 1.09513893 1.0151392-.01268544v3.17411052c0 1.34425828.6363911 2.01638742 1.9091731 2.01638742zm5.0729565 0c.4306119 0 .8135898-.03246078 1.1489335-.09738235.3353438-.06492156.6668769-.17567011.9945992-.33224565v-1.09411931c-.3696403.16421337-.7154636.28164502-1.0374698.35229496-.3220063.07064994-.6697349.10597491-1.0431859.10597491-.567798 0-1.0079367-.1651681-1.3204161-.4955043-.3124795-.33033619-.478246-.802927-.4972996-1.4177724h4.2127562v-.72750342c0-.88980732-.2419811-1.58866887-.7259431-2.09658464s-1.1432174-.76187366-1.9777661-.76187366c-.8993311 0-1.6062205.29596596-2.1206683.88789787-.5144479.59193191-.7716718 1.40536093-.7716718 2.44028705 0 1.00819371.2772302 1.79966396.8316907 2.37441075.5544604.57474679 1.3232741.86212019 2.3064411.86212019zm-1.6485338-3.95938005c.0495394-.51937252.1814-.799848.438624-1.07099101.2572239-.271143.5157958-.39991206.942597-.39991206s.6721737.12802914.9160601.39726269.3911614.55066376.3987828 1.07385519zm8.1322206-2.60533581c.2705615 0 .4934889.01909458.6687822.05728374l-.13147 1.25451376c-.1905362-.04582699-.3886939-.06874048-.594473-.06874048-.5373122 0-.9726875.17567011-1.3061259.52701035-.3334385.35134023-.5001577.80770064-.5001577 1.36908123v3.31099979h-1.3432804v-6.33558092h1.05176l.2038071.88768305h.068593c.2095899-.37807264.411201-.479799.7484502-.7012961.3372491-.22149711.7454206-.30095442 1.1341145-.30095442zm2.7155987.11456747v6.33558092h-1.3432805v-6.33558092zm1.2834044-2.66985161-1.7586971 1.93819512h-1.1590795l1.1590795-1.93819512zm1.7008503 9.12c.4839621 0 .8802774-.06969521 1.1889461-.20908563s.6154321-.16194086.9202901-.54765133h.0457287l.268656.64216949h.9603027v-4.26763814c0-.75232637-.2048265-1.30415967-.6144794-1.6554999s-1.0165108-.52701035-1.8205737-.52701035c-.3620189 0-.7469021.04678172-1.1546496.14034515-.4077476.09356343-.7831039.23008966-1.1260692.40957869l.4344227.96236673c.2743721-.12984313.5601765-.24250114.857413-.33797403s.6078106-.14320934.9317222-.14320934c.3963154 0 .6887885.10024654.8774194.30073961.1886309.20049306.2829463.50314212.2829463.90794717v.33797403l-1.0917726.03437024c-.9907885.03055132-1.5712142.23092505-2.0551763.5631707-.483962.33224566-.725943.82488577-.725943 1.47792033 0 .6148454.1743406 1.09030039.5230219 1.42636496s.6766466.48512162 1.2977947.48512162zm.5821549-1.11982539c-.3353438 0-.5868516-.07733304-.7545235-.23199912s-.2515078-.37329899-.2515078-.65589874c0-.38952939.1438548-.67881225.4315646-.86784857.2877097-.18903632.5886902-.20629304 1.2212705-.22920654l.8116844-.03437024-.0474721 1.36292323c-.0382263.1058317-.16167.22772671-.370331.36568504-.3129915.20693748-.5529123.29071494-1.0406851.29071494z" fill-rule="nonzero" transform="translate(.234223 .471328)"/><path d="m41.1397722 9.48240234c.8116157.10300782 1.3590016-.01056418 1.9147855-.10787109.3705225-.06487128.667209-.21678534.8900594-.45574219l.0002333-8.91878906-1.3855934.01130859-.0059811 3.11542969c-.4664696-.04464439-.9073098-.03499595-1.3225206.02894531-.8541911.13154297-1.4379991.43423829-1.9332153.99714844-.4952162.56291016-.7582506 1.1515625-.7582506 2.1928125 0 1.03742188.2636954 1.61232422.705702 2.18654297.4420067.57421875 1.0831652.84720703 1.8947808.95021484zm-.9627292-1.82578125c-.2476761-.36941406-.3629991-.57583984-.3629991-1.28021484 0-.71203125.1627586-1.08023437.4180556-1.46496094.1097977-.16546267.5624457-.48934549 1.1367051-.58359375.362727-.05953125.7454975-.06023437 1.1483114-.00210937l-.0015164 3.94101562c-.5074833.05378907-.933218.04947266-1.277204-.01294922-.6525997-.11842486-.9512671-.43299282-1.0613526-.5971875z" fill-rule="nonzero"/><path d="m2.89234006 0c.83454872 0 1.49380409.25395789 1.97776613.76187366s.72594306 1.20677731.72594306 2.09658464v.72750342h-4.21275618l.01178502.19967978c.04591688.51842957.20775507.92446045.48551456 1.21809262.31247943.3303362.75261813.4955043 1.32041612.4955043.37345102 0 .72117965-.03532497 1.04318589-.10597491s.66782951-.18808159 1.0374698-.35229496v1.09411931l-.24650625.10883909c-.24722077.10024653-.49658507.17471539-.7480929.22340656-.33534377.06492157-.71832161.09738235-1.1489335.09738235-.98316698 0-1.75198069-.2873734-2.30644114-.86212019s-.83169067-1.36621704-.83169067-2.37441075c0-1.03492612.25722392-1.84835514.77167176-2.44028705.51444783-.59193191 1.22133727-.88789787 2.1206683-.88789787zm-.02152106 1.13443274c-.42680117 0-.68537314.12876906-.94259705.39991206-.25722392.27114301-.38908453.55161849-.43862395 1.070991l2.69606393.00021482c-.00762145-.52319143-.15489644-.80462164-.39878282-1.07385519s-.48925895-.39726269-.91606011-.39726269z" transform="translate(44.834183 3.026612)"/><g fill-rule="nonzero" transform="translate(0 13.856484)"><path d="m2.76968712 0c.80406292 0 1.41092083.17567012 1.82057374.52701035s.61447936.90317353.61447936 1.6554999v4.26763814h-.96030263l-.26865609-.64216949h-.0457287c-.30485798.38571047-.61162132.40826091-.92029002.54765133s-.70498407.20908563-1.18894611.20908563c-.62114813 0-.94911339-.14905705-1.2977947-.48512162s-.52302197-.81151956-.52302197-1.42636496c0-.65303457.24198102-1.14567467.72594306-1.47792033.48396204-.33224565 1.06438781-.53261938 2.05517624-.5631707l1.09177263-.03437024v-.33797403c0-.40480505-.09431544-.70745411-.28294631-.90794718-.18863087-.20049306-.48110399-.3007396-.87741937-.3007396-.3239116 0-.63448566.04773645-.93172219.14320934s-.58304088.20813089-.85741306.33797402l-.43442262-.96236672c.34296522-.17948903.71832161-.31601526 1.12606915-.40957869.40774755-.09356343.79263075-.14034515 1.15464959-.14034515zm1.09177264 3.42556726-.81168437.03437024c-.6325803.0229135-.93356087.04017022-1.22127058.22920654-.28770972.18903632-.43156458.47831918-.43156458.86784856 0 .28259976.08383595.50123267.25150783.65589875.16767189.15466608.41917972.23199912.7545235.23199912.48777276 0 .72769361-.08377746 1.0406851-.29071494.208661-.13795833.33210466-.25985334.37033099-.36568504z" transform="translate(3.339779 2.934844)"/><path d="m2.76968712 0c.80406292 0 1.41092083.17567012 1.82057374.52701035s.61447936.90317353.61447936 1.6554999v4.26763814h-.96030263l-.26865609-.64216949h-.0457287c-.30485798.38571047-.61162132.40826091-.92029002.54765133s-.70498407.20908563-1.18894611.20908563c-.62114813 0-.94911339-.14905705-1.2977947-.48512162s-.52302197-.81151956-.52302197-1.42636496c0-.65303457.24198102-1.14567467.72594306-1.47792033.48396204-.33224565 1.06438781-.53261938 2.05517624-.5631707l1.09177263-.03437024v-.33797403c0-.40480505-.09431544-.70745411-.28294631-.90794718-.18863087-.20049306-.48110399-.3007396-.87741937-.3007396-.3239116 0-.63448566.04773645-.93172219.14320934s-.58304088.20813089-.85741306.33797402l-.43442262-.96236672c.34296522-.17948903.71832161-.31601526 1.12606915-.40957869.40774755-.09356343.79263075-.14034515 1.15464959-.14034515zm1.09177264 3.42556726-.81168437.03437024c-.6325803.0229135-.93356087.04017022-1.22127058.22920654-.28770972.18903632-.43156458.47831918-.43156458.86784856 0 .28259976.08383595.50123267.25150783.65589875.16767189.15466608.41917972.23199912.7545235.23199912.48777276 0 .72769361-.08377746 1.0406851-.29071494.208661-.13795833.33210466-.25985334.37033099-.36568504z" transform="translate(53.079483 2.850128)"/><path d="m19.7330591 9.38499214v-3.31099979c0-.56138059.1667192-1.017741.5001576-1.36908124.3334384-.35134023.7688137-.52701034 1.3061259-.52701034.2057792 0 .4039368.02291349.5944731.06874048l.13147-1.25451377c-.1752933-.03818915-.3982207-.05728373-.6687822-.05728373-.3886939 0-.7968654.07945731-1.1341145.30095441-.3372492.22149711-.5388603.32322347-.7484502.70129611h-.068593l-.2038071-.88768305h-1.0517601v6.33558092z"/><path d="m3.01237789 0c.91457394 0 1.63861163.29501123 2.17211309.88503368.53350146.59002246.80025219 1.38531162.80025219 2.3858675 0 1.03492612-.26484536 1.84262676-.7945361 2.42310193s-1.26706597.87071275-2.2121257.87071275c-.59066233 0-1.11273162-.13366205-1.56620786-.40098614s-.80215755-.6511251-1.04604394-1.15140304c-.24388638-.50027794-.36582957-1.0807531-.36582957-1.7414255 0-1.02728828.26294001-1.82926055.78882002-2.4059168s1.26706597-.86498438 2.22355787-.86498438zm-.04361374 1.16851656c-.56398726 0-.88408814.18798612-1.13750133.56223984-.2534132.37425373-.35811286.86605845-.35811286 1.56492 0 1.46264466.43239817 2.05039963 1.51083327 2.05039963 1.06700292 0 1.50204478-.61954744 1.50204478-2.0821921 0-1.447369-.44263949-2.09536737-1.51726386-2.09536737z" transform="translate(22.205327 2.850128)"/><path d="m1.33914252 9.58294922c.49021991.00476562.93150726-.09582031 1.32386204-.30175781l-.17222629-1.20773438c-.21138213.10679688-.4282164.14498047-.65050282.11455078-.22228642-.03042968-.35382306-.1621289-.39460992-.39509765l-.01172282-7.78042969-1.43394271-.01248047v8.23069544c-.00002935.74173575.59744183 1.34504341 1.33914252 1.35225378zm12.56441248-.19160156-.0227458-2.98470704c.0960766.01753907.4030861.0003125.9210286-.05167968.7769138-.07798828 1.2274812-.32199219 1.7990415-.78902344s.9465739-1.27041016.9465739-2.14705078c0-.83453125-.3660902-1.63626953-.8862101-2.06501953s-.9167195-.6666211-1.9607697-.6666211l-2.2784-.00826171-.0124227 8.72759765zm-.0491397-4.28144532-.0037005-3.2221289.7960989.00788086c.6248087.05027343.8663707.14796875 1.1597717.3853125s.4287869.84131836.4287869 1.32366211c0 .520625-.1638473.9034375-.4915419 1.1484375s-.6690239.36662109-1.3701379.36662109zm18.2544443 4.38175782 2.6347181-6.42316407-1.5890543-.01640625-1.157293 3.22617188c-.2324346.72734375-.4054579.98970703-.4397516 1.26533203h-.0457248c-.0457248-.3828125-.1394296-.64517578-.3604329-1.26533203l-1.2090834-3.22617188-1.6224148.01699219 2.5127075 6.42316406zm3.9706017-7.33166016c.2992143 0 .5320707-.08492308.698569-.25476923s.2497475-.40246154.2497475-.69784615c0-.31015385-.0832492-.54892308-.2497475-.7163077-.1664983-.16738461-.3993547-.25107692-.698569-.25107692-.3088665 0-.5465488.08369231-.7130472.25107692-.1664983.16738462-.2497474.40615385-.2497474.7163077 0 .29538461.0832491.528.2497474.69784615.1664984.16984615.4041807.25476923.7130472.25476923zm.7174761 7.25162109v-6.35085937l-1.4447676.01110351v6.35085938zm14.5714128-7.25162109c.2992143 0 .5320707-.08492308.698569-.25476923s.2497475-.40246154.2497475-.69784615c0-.31015385-.0832492-.54892308-.2497475-.7163077-.1664983-.16738461-.3993547-.25107692-.698569-.25107692-.3088665 0-.5465489.08369231-.7130472.25107692-.1664983.16738462-.2497474.40615385-.2497474.7163077 0 .29538461.0832491.528.2497474.69784615s.4041807.25476923.7130472.25476923zm.7174761 7.25162109v-6.35085937l-1.4494917.00029297v6.35085937zm-12.5049849-.01511718-.0034993-3.13453125c0-.79242188.0865214-1.25238282.4218174-1.54040039.3352959-.28801758.4598727-.38332032 1.2031344-.4331836.2003232 0 .7433493.10104492.9689989.39199219.1504332.19396484.2242694.46810547.2215088.82242187v3.9046875l1.4234215.00829102-.0000583-4.09001953c0-1.55039063-.7644911-2.24859375-1.9272081-2.29986328-.4264415-.01880377-.864488.00380859-1.3893903.21032226-.3499349.13767578-.6403517.30397461-.8712505.49889649l-.1813799-.68097656-1.332902-.00556641v6.35085937zm7.9385678.16716796c.388661 0 .7192134-.030625.9916572-.091875.2724437-.06125.5090969-.15613281.7491522-.29777343l.5393664-.2709961-.4205051-1.02644531c-.5334563.29859375-1.0565118.42978516-1.6512262.40242188-.5254667-.02417714-.8878431-.26361328-1.1615505-.55166016-.2737074-.28804687-.4956245-.72474609-.4956245-1.43677734 0-1.45851563.8708713-1.97660157 1.7261705-2.05775391.3685104-.03496493.6002745-.0471875 1.1680244.17484375l.5334174.31664063.0228041-1.27388672c-.5334563-.24882813-1.1123847-.46664063-1.8976969-.44947266-.9829317.02148819-1.777436.46142578-2.2975559 1.03564453s-.8443346 1.16730469-.8443346 2.23535156c0 1.04890625.3024021 1.85570313.7996596 2.41652344s1.2818309.87521484 2.2382419.87521484z"/></g></g><g transform="translate(.238889 .96)"><path d="m11.2348438.00075883c.6857624.0039998.8517989.03159742 1.7646087.22137497 1.0787753.22428255 1.0774729.22382759 2.07223.66582073.9947571.44199315.975129.45784519 1.8524509 1.07800394.5848812.41343917 1.1186365.86788895 1.6012657 1.36334934l.2197791.25365023c.0971552.09921509.1913481.20489951.2825786.31705326.1368457.16823063.2229808.2790937.4395645.57070984.2165837.29161613.2167029.2645768.4081648.57070349.1276412.20408445.2427651.41545752.3453716.63411922l.156986.28535174c.1855038.37256825.3529584.76360865.5023639 1.17312119.2241083.61426882.223563.59448632.3767651 1.23652422.1532021.64203791.1673712.68416576.2511788 1.39505721.0558718.47392759.0768049.89667379.0627995 1.26823839l-.0008805.0922441c-.0027778.196189-.0142918.6753708-.061919 1.1442865-.0619153.6095905-.0566131.6416308-.1883856 1.2365242-.1317725.5948935-.150923.6076207-.3453654 1.1731212-.1296283.3770004-.2761498.7469022-.4395645 1.1097055l-.879129-.1902345c-.2689996-.0534046-.5449438-.1039125-.8278327-.1515235s-.5410595-.0804394-.7745118-.0984852c-.2892767-.0466393-.5745503-.0952067-.855821-.1457024-.0937569-.0168319-.1603608-.0287143-.210445-.0378916l-.1113265-.0216609c-.0691949-.0150287-.1015991-.0271777-.2633567-.0715156-.1941093-.0532055-.3447968-.0976848-.4520625-.1334378l-.3351319-.1958446c-.0668857-.0522278-.102901-.1095178-.1080459-.1718698-.0051448-.0623521.020406-.1318851.0766525-.2085992l.3767651-.3487674c.1100717-.0853613.2278567-.198209.353355-.3385431s.2050284-.2481272.2385903-.3233793c.0420747-.1292535.0436097-.2151009.0046052-.2575423-.0390045-.0424413-.1436619-.0741471-.313972-.0951172l-.3453716-.0317079c.1214934-.1133159.2366173-.2401389.3453716-.380469.1087544-.14033.1820141-.2565858.2197792-.3487674.025747-.0989748.0287863-.1782555.0091178-.237842-.0196685-.0595864-.0645698-.1071288-.1347041-.142627l.5337573-.0951173c.2287842-.0694014.4485654-.1750879.6593437-.3170596.3161673-.2129575.3715032-.2827947.4807283-.4508468s.1583175-.2315801.1751932-.4786884c.0168757-.2471084.0256523-.2872178-.0506638-.4952921-.0763161-.20807435-.0848542-.2086174-.1970929-.38240676-.1122388-.17378935-.1371248-.17017507-.2825786-.31705961-.0969692-.09792302-.1911599-.1824731-.2825722-.25365022.1890849-.32476231.3840293-.61712821.5848333-.87709771.3012059-.38995425.3391283-.42956634.6608626-.80735141s.4318442-.47052872.8049196-.83220087c.2487169-.24111476.496634-.4379561.7437512-.59052403l-.0108437.00618886-.1562175-.283199c-.1886995.15638244-.3749789.31930946-.5588382.48878106l-.2788159.26381532c-.4154034.40334998-.4003418.3937662-.7849361.82435372-.3845944.43058751-.3349831.38520898-.6593437.79264585-.2162404.27162457-.4164882.54923363-.6007436.83282718-.0823013-.04211679-.1490084-.07463031-.2001213-.09754055-.0511129-.02291025-.1085985-.04606343-.1724569-.06945955.087223-.49280793.1818526-.94271254.2838888-1.34971385.1530543-.61050195.2011396-.74343942.4023331-1.35295085.2011934-.60951142.1902692-.62576626.4651125-1.24836534.1832288-.41506606.3960012-.81017286.638317-1.1853204l-.0161782.02512641-.2210075-.24697545c-.1599967.29298722-.3119897.59015513-.4559792.89150371l-.2173575.47175231c-.2109124.47511892-.3888315.92957082-.5337574 1.36335568l-.376765 1.33164782-.2825786 1.29993996c-.0601634-.02527336-.112492-.02527336-.1569859 0-.066741.03791003-.1989847.11534565-.345378.28535174-.1463933.1700061-.1752265.20385267-.2825722.44388473-.1073458.24003205-.1073932.26355853-.156986.53899562-.0330619.18362473-.0435284.35272273-.0313997.50729413v.0951172l.0313997.0951173.0313934.0634157c-.1047347-.0211386-.1989254-.0317079-.2825722-.0317079-.0836469 0-.1569087.0105693-.2197854.0317079l-.6279502-.2536502c-.2520081-.1174239-.4927203-.2548161-.7221368-.4121769-.2294164-.15736072-.5433905-.40043742-.9419221-.7292301-.3701549-.32179949-.7259931-.65999556-1.0675147-1.01458821-.3415217-.35459266-.7287554-.78790809-1.1617013-1.29994631l-.4081711-.53899562c-.1246014-.20154189-.2501897-.40234567-.37676506-.60241135-.12657534-.20006568-.24169923-.37973301-.34537166-.53900197-.05259575-.12410807-.11539098-.24036178-.18838569-.34876113-.07299471-.10839936-.1881186-.25636093-.34537166-.44388472-.0881304-.04793931-.1613901-.0585086-.21977911-.03170787-.08758353.0402011-.11374769.08259046-.12559256.1902345-.01184487.10764403.01816939.19378682.06279314.38047534.04462374.18668852.0757376.27048064.15698597.53899562.08124838.26851497.1034062.29816016.18838569.60241135.08497949.3042512.10153791.31215933.15698598.63411922.03696538.21463993.06836299.4894245.09419284.82435372l.50236393.34876113c.00903174-.10649171.00903174-.21217613 0-.31705327-.01354763-.15731569-.02992593-.20636471-.06279942-.41217685-.03287349-.20581215-.04360393-.28608436-.09419284-.57070984-.03372595-.18975032-.07558803-.41169057-.12558627-.66582074.09043743.19253963.18463027.38277413.28257853.57070349.14692239.28189404.17624969.31482595.34537169.63411922.1691219.31929327.1834493.3688396.3767651.72923647l.063117.11659506c.0652103.11870849.0546379.09041064-.0317173-.08489354.0853414.17114831.2039709.35490474.3558883.5512693.2278762.29454683.2310731.28561154.4290478.46331891.1979748.17770737.2251434.20746656.470958.38047534.2458146.17300877.2771489.18560938.565157.34876112.1920055.10876784.4327177.23559083.7221368.38046903l-.1255863-.0317016c-.1062648-.0262448-.2109242-.0579506-.3139782-.0951172-.154581-.05574993-.2897024-.09256762-.5651508-.22194236s-.398435-.19361035-.7849362-.41217686c-.2576674-.145711-.5193128-.30423975-.7849361-.47558624-.2921226-.16382916-.5746991-.34349648-.84772935-.53900197-.27303027-.19550549-.56607327-.42801502-.87912901-.6975286l-.94192215-.82435372-.62795019-.60241135-.50235764-.50729411c-.19238037-.24547034-.40169501-.46741058-.62794391-.66582073-.22624891-.19841015-.41463459-.32523527-.56515706-.38047534-.17117396-.06463566-.29676442-.06463566-.37677137 0-.12001043.09695347-.13843376.20174858-.09418656.38047534.0442472.17872675.16816956.39353414.37676509.76093798.20859552.36740384.53003.78092342.97332185 1.61699957.44329186.83607614.54336202 1.06032256 1.06692857 2.23104024.34904437.78047845.57948542 1.34730765.69132318 1.70048745.0827193.2341726.16303425.4692723.24094487.7052993.11686592.3540405.13590741.3733101.17649189.5985647.01082252.0600679.02519445.1601565.04311579.300266l.02954406.2401797c.02147074.1801302.04649089.4002812.07506045.660453l.25117882 1.7121168c-.09637176.0132396-.1905646.0343782-.28257853.0634157-.1380209.0435564-.10414753.0342321-.2140373.0817901-.10988977.0475581-.07471115.0303933-.17054495.0887824-.0638892.0389261-.10314766.0560494-.11777539.0513699-.63329923.1484982-1.26124732.3175962-1.8838443.5072941-.93389546.2845469-.88523357.2818304-1.75825803.6024114-.87302446.3205809-.68236342.2500177-1.35008694.5389956-.44514902.1926519-.72772545.3300442-.84772931.4121769-.37651686-.4804171-.71142195-.9877112-1.00471528-1.5218824-.43993999-.8012566-.44818521-.8106846-.75354275-1.6804089-.30535753-.8697244-.3090012-.888248-.47095793-1.8072341s-.19569412-.9671253-.18838568-1.9340592c.00730843-.9669338.00633985-1.13374663.21977911-2.21941087s.21644761-1.09367839.62795019-2.09258581.42304709-.99751257 1.00471528-1.87064979c.5816682-.87313722.596929-.88030934 1.31869352-1.61699957.72176452-.73669022.74812147-.77055245 1.60127205-1.36334933.72189665-.50159737.84724272-.59100756 1.44301273-.85182039l.37803215-.16276783c.94794246-.40469387 1.00202643-.42274992 2.04083656-.63411921 1.03881012-.2113693 1.08314301-.22204935 2.16642287-.22204935zm-1.72050764 13.60125617.59655674.0317016 1.1303016.0951172.565157.0317079c.1233888.051088.2185132.1155842.2853734.1934885.0668602.0779042.1077907.1719368.1227914.2820977-.0045428.0510522-.0156752.119227-.0333972.2045243-.0265831.1279459-.0484191.1840179-.1524033.3265254-.1039841.1425075-.1613449.1811549-.3323872.3011317-.1140282.0799845-.234342.1407868-.3609413.1824068-.1150503.0367754-.233274.069308-.3546712.097598-.1213972.0282899-.2752833.0591688-.4616584.0926365l-.3767713.0634158-.37676514.0951172-.06279941-.539002-.05480146-.475528-.07078481-.5390602zm5.58938344-.1451502c.2122527-.0233845.2815809-.0365457.4307375-.0083179.1491565.0282278.2270955.0255354.3047193.0992057.0776237.0736704.0696871.1389796.0174423.2444969-.03483.0703449-.1499539.2077372-.3453717.4121769l-.4709642.4755862-.3767651.4438848h-.3767714c-.1124986.0060499-.236328.0118043-.3714883.0172631-.1351603.0054587-.2729762.0102715-.4134479.0144384h-.3453716v-.0317015c-.0107403-.0805646-.0300664-.1570867-.0579781-.2295664-.0279118-.0724797-.0818455-.1861942-.161801-.3411435-.0725009-.139419-.1562271-.2768113-.2511788-.4121768-.0949518-.1353656-.1891446-.2516193-.2825786-.3487612h.6593436l.3453717-.0317078.3139782-.0317079c.1646102-.0186977.3365339-.044207.5157713-.0765277.1792373-.0323207.3003545-.0596537.3633515-.0819989.1938324-.0600387.3614995-.0978528.5030013-.1134424zm-7.12785607-1.2499133-.37676509.1268251c-.11673615.0376575-.23186004.0799325-.34537167.1268251-.04729651.0195386-.15301653.0621283-.31716007.1277693l-.22501554.0898336c-.21088236.0840819-.48018823.1912149-.80791762.3213991l-.49889081.2100873c-.19843724.0828102-.32929896.156422-.39258518.2208352-.09492932.0966199-.1262283.1876884-.09972805.32149.02650024.1338016.17362532.1603127.27386809.1724812.10024277.0121686.23535313-.0074134.5003507-.0423177.26499758-.0349044.50979888-.1210475.96749833-.1788217.30513296-.0385162.75617184-.0828664 1.35311662-.1330508h.21977911l.00945115-.1637744c.00332314-.1038593.00069101-.1970713-.00789637-.2796359l-.00159713-.0128125-.00689848-.0806975c-.00614637-.0786494-.00748943-.1219927-.02422869-.2135093l-.02261947-.1106663c-.03249755-.1476753-.09829416-.3150952-.19738983-.5022598zm-.97331558-5.29487708.75353646 1.10970546c.30322356.44954744.62766418.87229147.97332186 1.26823209.51848652.59391093.52681488.63762301 1.13030784 1.14141333.40232859.3358602.81049339.6106448 1.22449439.8243537-.1907798.0178813-.3791634.049587-.5651508.0951173-.1859873.0455302-.3429754.0983724-.4709642.1585266l-.47095792.158533-.47096422.1585266c-.12691304-.4857702-.27343455-.9613586-.43956451-1.4267651-.24919494-.69810973-.24982796-.66098078-.53375106-1.29993993-.18928207-.42597276-.37766776-.81701104-.56515706-1.17311484zm9.79599285 2.37793755c.1230314-.01043974.2328298.0060106.3293954.04935101.1448483.06501063.150772.09834112.2166555.23472497.0658836.13638385.085712.2892753-.0020747.58484305-.0877867.2955677-.3889505.3389422-.6579803.2878663-.2690297-.0510759-.3292622-.1440854-.3883535-.3007238-.0393942-.1044255-.0393942-.24181778 0-.41217681l.0133875-.05482296.0494056-.10371002c-.0196424.04881268-.0197192.09535911-.0002305.13963927.029233.06642025.0671825.13218552.1452605.15644595s.2034155.07477255.331635-.04294218.1033865-.24106542.0675623-.34593912c-.0358242-.10487371-.0633496-.10463354-.0972891-.12530407-.0226263-.01378035-.0564819-.02562826-.1015665-.03554373l.0344635-.01649284zm5.2198866-5.15148568.0862778.01513524c.0039367.00106011.0078596.00217082.0117677.00333186.2516566.07476328.3950571.33937894.3202938.59103561l-.0090919.03060374c-.0746997.25144278-.3371651.3965943-.5898483.32620444-.2524222-.07031715-.4015007-.33040549-.3345986-.58375423l.0059873-.02267311c.0703125-.26112541.3366496-.41445144.59549-.34474831zm-2.3794009-3.46037294c.1138292-.02873657.2331658-.02745624.3463523.00371593.114574.03155431.2242369.07879325.3258758.14037589l.0145633.00882384c.0962761.05833336.1783912.13732587.2404115.23126926.062098.09406114.1036788.20015185.1220324.31135799l.0035565.02154929c.0207908.125973.0207909.2545022.0000005.38047525l-.0035575.02155548c-.0183533.11120618-.0599339.21729693-.1220319.31135807-.0620203.09394339-.1441354.1729359-.2404115.23126926l-.0145633.00882383c-.1016389.06158264-.2113018.10882158-.3258758.1403759-.1131865.03117216-.2325231.03245249-.3463523.00371592l-.0379656-.00958454c-.1092687-.02758526-.2129399-.0738705-.3064255-.13680725-.0932673-.06278985-.1731788-.14342582-.2351244-.23725605-.0626917-.09496044-.1084421-.19933806-.135632-.30916701l-.0060125-.0242866c-.0309303-.12493723-.03093-.25553206.0000007-.38046917l.0060112-.0242806c.0271903-.10982886.0729409-.21420639.1352781-.30862977.0623001-.0943673.1422116-.17500328.2354789-.23779312.0934856-.06293676.1971568-.109222.3064255-.13680725z" fill="url(#a)"/><path d="m17.6776698 15.6946008c-1.2158368-.1591577-1.3032787-.1508703-2.4490013-.1585329-1.1457227-.0076626-1.2178808.0037406-2.2920091.1268251-1.0741284.1230845-1.106558.1540141-2.1350231.380469-.6856435.1509699-1.3659223.3306372-2.0408366.5390019l-.12558627.2219424-.18838569.4121769c-.06195849.1942669-.14233301.3437746-.24112356.448523-.14818583.1571227-.18107367.1842122-.35762414.2287848-.17655047.0445727-.2928492.0459043-.46002871-.0302452-.1671795-.0761496-.2249543-.1604328-.25822866-.2658669s-.05994453-.2140864.02918831-.4782081c.08913284-.2641216.10042985-.2591477.20354215-.418398.10311231-.1592503.19497413-.2357577.31689829-.3477644.12192415-.1120067.16074952-.153596.27770866-.2321952.11695913-.0785993.13769819-.0972444.20595735-.1363839.04550611-.026093.09233727-.0528424.1404935-.0802484-.0760142.0186478-.15990486.0455814-.25167199.0808008-.03721259.0108503-.17769495.0619183-.42144708.1532039-.23371694.090937-.4325671.1966214-.59655048.3170532-.24597508.1806477-.2870941.2239287-.43956451.4438848-.10164694.1466373-.17490664.3157354-.21977911.5072941l-1.00471528.4121768-.91052873.4438847-.72213675.380469-.50236392.2536439c.49232612.4829528 1.02608347.9162662 1.60127205 1.29994.86278286.5755107.86465387.5758169 1.82105116.9828867.95639729.4070697.91419086.414371 1.97803714.6341128 1.06384628.2197419 1.00848523.2736742 2.20177827.2653649 1.1932931-.0083093 1.2095717-.0383457 2.3508465-.2970664s1.2056913-.2952835 2.229216-.7926458c1.0235246-.4973623 1.0483358-.5266049 1.9466374-1.2365306s1.2179172-1.0558168 1.8573301-1.8251548c.4262752-.512892.7909515-1.0881933 1.0940289-1.7259039-.947696-.232091-1.8268229-.401189-2.6373808-.5072942z" fill="#999"/></g></g></svg>