<svg height="24" viewBox="0 0 178 24" width="178" xmlns="http://www.w3.org/2000/svg"><g fill="#999" fill-rule="evenodd"><path d="m76.208333 4.615385h1v17.538462h-1z"/><g fill-rule="nonzero"><g><path d="m24.7053476 11.5611152h4.9380686v1.7789531h-6.842782v-10.03928157h1.9047134z"/><path d="m37.7462715 9.62407978c0 2.22579912-1.6689712 3.88882522-3.7218058 3.88882522-2.0528347 0-3.7072024-1.6672416-3.7072024-3.88882522s1.6585402-3.92044169 3.7072024-3.92044169c2.0486621 0 3.7218058 1.68621148 3.7218058 3.92044169m-1.9026272.01264659c0-1.28573626-.8177959-2.18364387-1.8191786-2.18364387-1.0013828 0-1.8170925.89790761-1.8170925 2.18364387 0 1.28573623.8157097 2.12462643 1.8170925 2.12462643 1.0013827 0 1.8191786-.8662911 1.8191786-2.12462643"/><path d="m42.4861498 13.3210984c-2.163404.2318541-3.3087355-1.0833908-3.3087355-3.121599v-2.61573551h-.8908134v-1.68621148h.886641v-1.89698791h1.8921961v1.89698791h1.3289183v1.68621148h-1.3289183v2.63048991c0 1.0412356.4714844 1.431172 1.4165393 1.3763701z"/><path d="m45.0480206 10.3702284c.1959902.868929.9642363 1.4828582 1.8462994 1.475435.6398528.0276448 1.2416332-.307241 1.5604881-.8683989h2.0194552c-.4318463 1.5196981-1.7315577 2.5440716-3.5653398 2.5440716-2.1049222-.0208581-3.7954986-1.7600219-3.7781336-3.8867175 0-2.15624293 1.7023506-3.92044169 3.7781336-3.92044169 2.1759212 0 3.9804964 1.70728912 3.7072023 4.65605149zm3.694685-1.55974566c-.2088252-.85347798-.978577-1.44421647-1.8483856-1.41852541-.8546502-.00009363-1.6015307.58296361-1.8170924 1.41852541z"/><path d="m56.115386 7.59851824c-.7593819-.0885261-1.3894185 0-1.8191786.46160039-.4005531.42155287-.4735706 1.028589-.4735706 1.62087079v3.65907888h-1.8880237v-7.44883918h1.8024889v.73771752c.5711907-.71446067 1.4853551-1.05311683 2.378284-.8810455z"/><path d="m59.0778099 13.3400683h-1.8901099v-7.44883918h1.8901099zm-.4172428-8.41841078h-1.3894185l1.3310045-2.03820813h2.1175073z"/><path d="m65.6931946 12.6445061c-.4881741.5206178-1.2308663.8431057-2.2635422.8431057-1.5604881 0-2.9937171-.7946271-2.9937171-2.4154979 0-1.68621149 1.3915047-2.10776436 3.0229241-2.25530787 1.2308663-.11592704 2.1029037-.25925501 2.1029037-.86629114 0-.39204417-.4986051-.71031659-1.3435218-.71031659-.6738471 0-1.4457463.30562583-1.6168159.94217066h-1.8921961c.1877593-1.4185254 1.5312811-2.47451534 3.4652015-2.47451534 2.9916309 0 3.2211145 1.95178979 3.2211145 2.54617933v3.86985535c.0145484.4130846.0847343.8222407.2086214 1.21618h-1.7315577c-.0929473-.2222317-.1554156-.4562486-.185673-.6955622m-.0563278-2.8918527c-.4026393.2613628-1.0180725.3920442-1.7920579.4763547-.9304514.1032805-1.5020741.3035181-1.5020741.8557524 0 .4215528.4881741.7039933 1.2517285.7039933 1.1328142 0 2.0507484-.3878287 2.0507484-1.3426459z"/><path d="m26.6580439 21.7669102h-.9888654v-.4363072c-.3227281.3388432-.7696301.5279929-1.2350387.5227255-1.0431071 0-1.9193169-.9168775-1.9193169-2.1077643 0-1.1908869.8699512-2.128842 1.9193169-2.128842.442392-.0044523.8690388.1657006 1.189142.474247v-2.2068293h1.043107zm-2.0695243-3.193263c-.5695364 0-1.0305897.5058634-1.0305897 1.1698092-.0575641.4081537.1257228.812742.4690983 1.0354898.3433756.2227477.7837796.2227477 1.1271552 0 .3433755-.2227478.5266625-.6273361.4690984-1.0354898.0159013-.2950528-.0852119-.5843468-.2809712-.8038843-.1957594-.2195375-.4700294-.351223-.7621359-.3659249"/><path d="m28.4313258 20.1397161c.1077343.474611.5277933.8095699 1.0097276.805166.3500201.016433.6796162-.1667581.8532616-.474247h1.1077796c-.233656.8304592-.9471412 1.3911245-1.9485239 1.3911245-1.1671626 0-2.1133348-.9559461-2.1133348-2.1351653s.9461722-2.1351653 2.1133348-2.1351653c1.189142 0 2.1759212.9337396 2.0278001 2.5482871zm2.0194552-.8431057c-.1137802-.4665335-.5343532-.7896113-1.0097276-.7756573-.4669007.0008517-.8746559.3193474-.9930378.7756573z"/><path d="m33.909724 15.88414h1.034762v5.88277h-1.034762z"/><path d="m38.5432052 21.3896204c-.3299058.3208168-.7780701.4867902-1.2350387.4573848-.8532615 0-1.6355918-.4363072-1.6355918-1.3194604 0-.9189853.7572957-1.1550549 1.6501953-1.23515.6738472-.0632329 1.149504-.1433279 1.149504-.4742469 0-.2107765-.2732941-.3878287-.7343474-.3878287-.3671736 0-.7906751.1665134-.8845547.5142945h-1.032676c.1022245-.7735495.8344856-1.3531847 1.8942824-1.3531847 1.6355918 0 1.7586784 1.0686365 1.7586784 1.3932323v2.1077643c.0096807.2257364.0496849.4490961.1189142.6639458h-.9471412c-.0502666-.1207029-.0846349-.2475495-.1022245-.3772898m-.029207-1.5829311c-.3032226.1597778-.6369142.2517901-.9784343.2697939-.5090363.0548018-.8344856.1665133-.8344856.4658159 0 .2297463.2670353.3878286.6821919.3878286.6258642 0 1.120297-.2107764 1.120297-.7356097z"/><path d="m44.5640189 21.8617596c-1.4791257 0-2.6307159-1.2646586-2.6307159-2.862344s1.1515902-2.862344 2.6307159-2.862344c1.1429399-.047623 2.16751.707122 2.4721637 1.8211084h-1.1182108c-.2468117-.5302098-.774024-.8691741-1.3539529-.8705067-.8928996 0-1.5959537.8705067-1.5959537 1.896988 0 1.0264812.7030541 1.91385 1.5959537 1.91385.5816181-.0096242 1.1070093-.3531431 1.3539529-.885261h1.1119521c-.3130688 1.1070456-1.3266447 1.8607851-2.465905 1.8337549"/><path d="m48.7427056 17.252079h-1.043107v-.9801105h1.043107zm0 4.5148312h-1.043107v-4.0722007h1.043107z"/><path d="m53.2739625 21.7669102h-.9867792v-.3709665c-.255624.3018079-.6312239.4726124-1.0243311.4658159-.955486 0-1.5896951-.7187477-1.5896951-1.7852764v-2.3817737h1.043107v2.3817737c0 .2276385.0771899.7988427.7489508.7988427.2107114.0053384.414281-.0773231.5627298-.2285021.1484489-.151179.2286449-.3575018.2216867-.5703406v-2.3817737h1.032676z"/><path d="m58.1181515 21.7669102h-.9867793v-.4363072c-.3236563.3387458-.7711396.5278221-1.2371249.5227255-1.043107 0-1.9172307-.9168775-1.9172307-2.1077643 0-1.1908869.8699513-2.128842 1.9172307-2.128842.4431114-.0050036.8706061.1651889 1.1912282.474247v-2.2068293h1.032676zm-2.0653519-3.193263c-.5716227 0-1.043107.5058634-1.043107 1.1698092-.0543788.4067329.1299053.8083638.4722715 1.0292741.3423663.2209103.7805288.2209103 1.122895 0s.5266503-.6225412.4722716-1.0292741c0-.6470836-.4631395-1.1698092-1.032676-1.1698092"/><path d="m61.7273017 21.3896204c-.3318814.3203598-.7810881.4861591-1.2392111.4573848-.8532615 0-1.6335056-.4363072-1.6335056-1.3194604 0-.9189853.7572957-1.1550549 1.6501953-1.23515.6717609-.0632329 1.1515902-.1433279 1.1515902-.4742469 0-.2107765-.2753803-.3878287-.7364336-.3878287-.3671737 0-.7906751.1665134-.8845547.5142945h-1.032676c.1001383-.7735495.8344856-1.3531847 1.8942824-1.3531847 1.6355918 0 1.7607646 1.0686365 1.7607646 1.3932323v2.1077643c.0090309.2256363.0483323.4489902.116828.6639458h-.945055c-.0512074-.1203723-.0856112-.2473498-.1022245-.3772898m-.0312932-1.5829311c-.3046285.1568332-.6389622.2459516-.9805206.2613628-.50695.0548019-.8219683.1665134-.8219683.4658159 0 .2297463.2670354.3878287.682192.3878287.6258642 0 1.1202969-.2107765 1.1202969-.7356098z"/><path d="m67.5415802 21.7669102h-.9867792v-.4363072c-.3237986.3385355-.7711879.527572-1.2371249.5227255-1.043107 0-1.9172307-.9168775-1.9172307-2.1077643 0-1.1908869.867865-2.128842 1.9172307-2.128842.4423921-.0044523.8690388.1657006 1.189142.474247v-2.2068293h1.043107zm-2.0674381-3.193263c-.5716226 0-1.043107.5058634-1.043107 1.1698092-.0543787.4067329.1299054.8083638.4722716 1.0292741s.7805287.2209103 1.122895 0c.3423662-.2209103.5266503-.6225412.4722715-1.0292741 0-.6470836-.4610533-1.1698092-1.0326759-1.1698092"/><path d="m8.56013721 23.6491438c-.71765762-.7777651-1.43114282-1.5618534-2.13002452-2.3606961-1.36792072-1.5259625-2.62962048-3.1457889-3.7760474-4.847858-.96878512-1.4065097-1.72661095-2.9498921-2.24893872-4.5801719-.28949465-.9113944-.42559676-1.86540091-.40263931-2.82229651.1189142-2.85180516 1.25590085-5.20196241 3.44433937-7.00831646 1.39518527-1.13864895 3.09496438-1.83072133 4.88174082-1.98762178.14394877-.01475435.28998375-.01896988.43601874-.02529317l.36717367-.01687603c4.23094744-.00733397 7.92295514 2.89785053 8.95194444 7.04416237.5048637 2.04453141.2524319 4.01529108-.5298984 5.94178768-.8073648 1.977083-1.9693861 3.7370662-3.2586663 5.4211699-1.3915048 1.8358628-2.9353032 3.5557985-4.49579126 5.24201-.6988817.7819805-1.23921113.0126465-1.23921113.0126465m.62586421-7.1242435c3.97137128-.0034917 7.18854128-3.2579827 7.18700618-7.27037893-.0015363-4.01239626-3.2211964-7.26437251-7.19256922-7.26476119-3.97137277-.00038869-7.19165649 3.25095728-7.19400548 7.26335316-.00663459 1.92917486.74879357 3.78131296 2.09879136 5.14565176 1.34999778 1.3643388 3.18297999 2.1281076 5.0924323 2.1219197"/><path d="m12.3779089 14.29067c-.3209323-.0026318-.6003794-.2220454-.6821486-.5356029-.0817691-.3135576.0543906-.6436033.3323748-.8056632.2779842-.16206.6289473-.1159983.8567238.1124395.1333929.1334113.2084465.3151738.2084465.5048096s-.0750536.3713983-.2084465.5048096c-.1334373.1346275-.3142007.2104078-.5027776.2107764"/><path d="m12.3779089 14.3749901c-.2105167.0010276-.412658-.0832454-.5611916-.2339713-.268816-.2704-.3110542-.6950315-.1008695-1.0140672.2101846-.3190358.6142113-.443557.9648608-.2973706.3506494.1461864.5501916.5223367.476529.8982887-.0736626.3759521-.3999994.6469239-.7793287.6471204m0-1.4375156c-.1694301-.0009889-.332022.0674575-.4506222.1897096-.1178427.1186473-.1840804.2798153-.1840804.4479 0 .1680846.0662377.3292526.1840804.4478999.2493268.2382183.6394003.2382183.8887271 0 .1197748-.1188901.187243-.2814185.187243-.4510616s-.0674682-.3321715-.187243-.4510616c-.1176005-.1178459-.2766426-.1837875-.4422773-.1833863"/><path d="m8.15541169 13.0871366c-.12363598-.0004968-.24506075-.0331628-.35257017-.0948494l-.02503457-.0147543c-.30050248-.1901452-.41653994-.5748331-.27207546-.9019857.14446449-.3271525.50532128-.4968796.84610841-.3979625.34078714.098917.55745134.4362756.50801707.7910117-.04943428.3547361-.34987315.6185402-.70444528.6185402"/><path d="m8.15541169 13.1693394c-.13825452.0000203-.27413607-.0362985-.39429445-.1053882l-.02503457-.0147544c-.37448604-.2278407-.49658275-.7184476-.27329404-1.0981452.19657228-.3357158.60261466-.4814111.96473844-.3461655.36212378.1352457.57673966.5127438.50991767.8969186s-.3959667.6651291-.78203305.6675347m0-1.439603c-.27924415.0009704-.52406785.1887274-.60007893.4602047-.07601107.2714772.03518274.5609858.27254333.7096045l.02086214.0126466c.09540323.0548138.20318238.0838518.3129321.0843105.34565526 0 .62586421-.2831034.62586421-.6323293 0-.3492258-.28020895-.6323293-.62586421-.6323293"/><path d="m10.731886 12.9206232h-.0125173c-.1881279-.0027746-.3674574-.0809517-.4985274-.2173286-.1310701-.136377-.2031412-.3197794-.2003543-.5098501.0045283-.3946986.3207243-.713224.711399-.7166524.1862691-.0011085.36532.0727217.4976203.2052022.1323003.1324806.206969.3127156.2075201.5009114v.0316165c-.0068123.3911871-.3220668.7050142-.7093128.706101"/><path d="m10.731886 13.0049338h-.0125173c-.2104851-.0033336-.4109648-.0913331-.5570191-.2445007-.147452-.1514388-.22797183-.3567186-.22322492-.5690963.00564301-.4396249.35761802-.7942999.79276132-.7988427.2092883-.0028196.4109673.0792092.5599466.2277469.1489792.1485376.2328334.3511957.2328148.5626647v.035832c-.009043.4352839-.3597522.7840065-.7906752.7861961m0-1.4459263c-.3456552 0-.6258642.2831034-.6258642.6323293-.0026289.1681994.0611868.3305245.1773282.4510615.1157191.1204268.27408.1894301.4401912.1918066l.010431.0843106v-.0843106c.3456553 0 .6258643-.2831035.6258643-.6323293v-.0231854c0-.3492259-.280209-.6323293-.6258643-.6323293"/><path d="m6.83066578 11.1311313c-.31948523.0007874-.60006331-.2143163-.68532053-.5253972-.08525721-.3110809.04584988-.64135718.32023308-.80670988h.01460349c.22024575-.12726237.49096072-.12614417.7101692.00293337.21920847.12907754.35360747.36650451.35257614.62284441-.00104325.2563399-.13735923.4926486-.35760499.619911-.1081608.0619481-.23032534.0946198-.35465639.0948493"/><path d="m6.82857957 11.2133341c-.28302216-.0005987-.54472875-.1520336-.68845063-.3983675-.20871686-.377538-.08312733-.85429669.28372511-1.07706755l.01668971-.01053882c.38025268-.21859175.86389137-.08464172 1.08065886.29930257.10605847.1834263.13391316.4024808.07718992.6070361-.05483588.2051646-.18852521.3796936-.37134609.4847858-.12137114.0700811-.25867327.1071216-.39846688.107496m-.36300124-1.41641766.04172428.07166399c-.24272603.14550987-.35902601.43715367-.28393949.71203087.07508653.2748772.32297972.4649705.60521645.4641078.11053269.0004884.21922346-.0286013.31501832-.0843167.14463751-.0830776.25058157-.2209215.29442463-.3830764.04384306-.1621548.02197642-.3352736-.06076866-.481107-.08222813-.14613162-.21866275-.25317007-.37915967-.29746602-.16049692-.04429596-.33184569-.02220343-.47618809.06139639z"/><path d="m14.5600888 11.6095969c-.1884827.000557-.3694356-.0746986-.5029091-.2091554s-.2084899-.3170571-.2084899-.5074876v-.0316164c.0204586-.3812754.3324246-.6798396.7103559-.6798396.3779312 0 .6898972.2985642.7103558.6798396v.0316164c0 .1900647-.0747309.3723449-.2077529.5067409-.1330219.1343961-.3134384.2099021-.5015598.2099021"/><path d="m14.5600888 11.6939044c-.43783 0-.7927614-.3585978-.7927614-.8009505v-.0316164c-.0150223-.2955726.1325068-.5754256.3836551-.727768.2511482-.15234249.5649781-.15234249.8161264 0 .2511482.1523424.3986773.4321954.383655.727768v.0168621c.0027825.2142716-.0790914.4208245-.2274937.5739246s-.3510888.2401157-.5631814.2417802m0-1.4754351c-.3456553 0-.6258642.2831035-.6258642.6323293v.0189699c-.0034566.3492258.2739503.6351603.6196055.6386526.3456553.0034923.6286663-.2767802.6321229-.626006v-.0189699c.0032255-.17202-.063067-.3379409-.1835869-.4594926-.1172597-.1186187-.2763438-.1853357-.4422773-.1854833"/><path d="m12.0399422 10.7116862c-.1860064-.0009824-.3639514-.0768403-.4944327-.2107765l-.0146035-.0147543c-.1792525-.1811041-.2492586-.4450691-.1836476-.69246196.065611-.24739283.2568711-.44062863.5017345-.50691734.2448634-.0662887.5061296.00444052.685382.18554465l-.5027775.50586344.50695-.50375568c.2057005.20460278.268639.5145056.159308.78441709-.109331.2699115-.3692554.4463189-.6579132.4465173"/><path d="m12.0399422 10.7917935c-.2068641.0011542-.4057197-.080726-.5528467-.2276508l-.0166897-.0168621c-.2880022-.3039706-.2940842-.78127327-.013923-1.09263404.2801612-.31136078.7510241-.35059823 1.0778921-.0898218l.058414.05901741v.01264658l.0438105.04426305c.2599477.31602622.2410201.7795341-.0438105 1.0728521-.14541.1507923-.3444787.236555-.5528467.2381896m0-1.44172309c-.2574856-.00770941-.4933475.14476233-.5943195.384195-.1009721.23943266-.0464281.51691579.1374386.69919589l.0125173.0126466c.2482065.2390139.6384346.2390139.886641 0 .2259858-.2280342.245767-.59140759.0458967-.84310576l-.4443636.44263046-.116828-.12014252.4506223-.44263051c-.1089457-.0844669-.2423644-.13038673-.379691-.13068139"/><path d="m11.2534395 6.23690247c-.1859122-.0014452-.363689-.07723137-.4944327-.21077643l-.0104311-.00843106c-.2771003-.27996271-.2771003-.73387194 0-1.01383465.2771003-.2799627.7263687-.27996271 1.003469 0l-.50695.51851003.50695-.50586345c.2057005.20460278.268639.5145056.159308.78441707-.109331.26991148-.3692554.44631887-.6579132.44651731"/><path d="m11.2534395 6.31911137c-.2063935.00080851-.4048772-.08016183-.5528467-.22553688l-.0166897-.01686211c-.3243399-.297424-.3486246-.80417922-.0542416-1.13186946.2943831-.32769024.7959571-.35222587 1.120297-.05480187l.058414.05690964v.01264658l.0438104.04426306c.2592581.3170423.2403686.78052548-.0438104 1.07495981-.1488537.15332108-.3527954.23923793-.565364.23817738m0-1.44172159c-.2542668-.00148319-.4841561.15259422-.5816601.38985348-.0975039.23725926-.0432403.51053702.1372965.6914404l.0125172.01264659c.2477786.24009167.6388625.24009167.886641 0 .2259858-.22803415.245767-.59140757.0458967-.84310574l-.4443636.44263051-.116828-.1180348.4401912-.44473828c-.1089457-.08446689-.2423644-.13038673-.3796909-.13069216"/><path d="m8.93356952 9.36904029c-.37215549 0-.67384713-.30480807-.67384713-.68080788s.30169164-.68080789.67384713-.68080789v.67659236-.68080789c.18482907-.00625145.36453668.0619873.49953728.18968479.13500061.12769748.21421951.30437811.22020656.4911231-.0045833.38332873-.31528804.69064421-.69470927.68713118h-.02503457"/><path d="m8.93356952 9.45335087c-.40277521-.00005892-.73503401-.31863903-.75614509-.7250155s.27631289-.75834763.67686896-.80100589h.16272469c.41709067.01571517.74260006.37006635.72704557.79146551s-.36628268.75027103-.78337334.73455588zm-.08136234-1.35740024c-.21055643.01468411-.39736481.14174367-.49005622.33331657-.09269142.1915729-.07718384.41855465.04068117.59544343.11786502.17688878.32018097.27681097.53073739.26212685h.02086214c.32060703.01029573.59069491-.23992148.60826819-.5635172s-.22379817-.60216519-.54359555-.62736965v.58806625h-.16481091z"/><path d="m4.1269324 9.76951552c-.18853138-.00059758-.36921189-.07634318-.50277758-.21077644-.13312879-.13441036-.20792757-.31676614-.20792757-.50691732s.07479878-.37250696.20792757-.50691733l.50277758.50586345-.49860515-.51007898c.27421983-.28287292.72348819-.28759131 1.00346894-.01053882.27998076.2770525.28465091.73096173.01043107 1.01383465 0 0-.01251728.01264659-.01460349.01475435-.1325365.13469939-.31270022.21054305-.50069137.21077644"/><path d="m4.1269324 9.85172779c-.21051673.00102765-.41265796-.08324541-.56119157-.2339713-.2876216-.29180467-.31015007-.75613297-.05215536-1.07495982l.0438105-.04637082c.00444578-.0023747.00808065-.00604711.01043107-.01053882l.04798292-.05058634c.32260165-.26834003.79597248-.23761288 1.0819342.07022982s.2863165.78708932.00081088 1.09536386l-.01460349.01686212c-.14866562.15052635-.35072053.23476343-.56119158.2339713m-.49860515-1.18668079c-.19767148.2537945-.17428518.61730029.05424156.84310574.24862791.23794753.63801306.23794753.88664097 0l.07301749.04426305-.058414-.0590174c.2348432-.23754502.24499317-.61910685.02311781-.8690534-.22187537-.24994655-.59841003-.28112359-.85760342-.0710095l.43810495.44684604-.11056935.10538822z"/><path d="m4.56086492 12.0395777c-.18773583.0016844-.3683855-.0723407-.50192089-.2056729-.1335354-.1333323-.20893005-.3149619-.2094781-.5046437 0-.3969533.31850418-.7187476.71139899-.7187476s.71139898.3217943.71139898.7187476c0 .3969534-.31850417.7187477-.71139898.7187477"/><path d="m4.56086492 12.1238911c-.43870736.0011544-.7953862-.3570164-.7969229-.8002544-.00152681-.443238.35266782-.8039165.79137247-.8058623.43870466-.00193.79600733.3556056.79831458.7988402.00115326.4438618-.35344497.8049513-.79276415.8072765m0-1.4396059c-.34565526 0-.62586421.2831035-.62586421.6323294 0 .3492258.28020895.6323293.62586421.6323293s.62586421-.2831035.62586421-.6323293c0-.3492259-.28020895-.6323294-.62586421-.6323294"/><path d="m6.0003526 14.2717002c-.18610136-.0005132-.36421787-.0764441-.49443273-.2107765h-.01043107c-.23639888-.2408597-.27193286-.6167134-.08493968-.8984327s.544651-.3911695.85493772-.2616274.48714438.4621481.42275682.7950542c-.06438757.3329062-.35216246.5737811-.68789106.5757824"/><path d="m6.0003526 14.3560107c-.20781037-.000276-.4068781-.0845204-.55284672-.2339618-.26356133-.2516835-.32447695-.6519723-.14792169-.9720233s.54555948-.4782506.89605484-.3841569.59310492.4164866.58913004.7828683c.00110923.2133489-.08185712.4183745-.23058899.5698291-.14873186.1514546-.35100253.2368876-.56217234.2374446m0-1.4417108c-.25312707.0010723-.4806922.1560888-.57658861.3927699s-.04124036.5084201.13848367.6885132c.11767453.1210121.2785412.1891772.4464498.1891772s.32877527-.0681651.4464498-.1891772c.11715334-.1193324.18246242-.2808788.18151109-.4489538-.00451178-.1640486-.07094028-.3201469-.18568352-.4363072-.11777038-.1191361-.27770718-.1858958-.44436359-.1854832"/><path d="m9.0045008 15.2180864h-.01251728c-.38916447-.0045924-.70289092-.3234352-.70515271-.7166399-.00109852-.189676.07270213-.3719688.20506219-.5064874.13236007-.1345186.3123505-.2101525.50009052-.2101525h.01251728c.39174263 0 .70931277.3208506.70931277.7166399s-.31757014.7166399-.70931277.7166399"/><path d="m9.0045008 15.3023969h-.01668971c-.44078623-.0046392-.79504638-.3681955-.79276156-.8135531.00230701-.4453577.36029627-.805166.80110641-.805166.44081015 0 .79879941.3598083.80110642.805166.00228482.4453576-.35197533.8089139-.79276156.8135531m0-1.4353875c-.34565526-.0034922-.6286663.2767802-.63212285.626006-.00345655.3492259.27395031.6351604.61960557.6386526l.01251728.0843106v-.0822028c.34565526 0 .62586421-.2831035.62586421-.6323293s-.28020895-.6323293-.62586421-.6323293"/></g><g><g transform="translate(84.8125 6.485958)"><path d="m6.11827354 8.96703297c-.18602858 0-.39272702-.08302809-.51674607-.24908425l-2.14966368-2.34554335c-.2893778-.31135531-.26870796-.78876679.04133969-1.07936508.1446889-.12454212.33071748-.2075702.51674607-.2075702.20669843 0 .41339686.08302808.55808576.24908424l1.61224776 1.76434677 4.87808293-4.8986569c.1446889-.14529915.3307175-.22832723.537416-.22832723.2066984 0 .392727.08302808.5374159.22832723s.2273682.33211233.2273682.53968254-.0826793.39438339-.2273682.53968254l-5.43616875 5.47985348c-.1446889.14529914-.33071749.22832723-.53741592.22832723z"/><path d="m6.55234025 13.1807082c-3.61722254 0-6.55234025-2.968254-6.55234025-6.60073262 0-3.63247863 2.93511771-6.57997558 6.55234025-6.57997558.45473654 0 .82679372.37362637.82679372.83028083s-.37205718.83028083-.82679372.83028083c-2.70774944 0-4.89875281 2.2002442-4.89875281 4.91941392s2.19100337 4.91941392 4.89875281 4.91941392 4.89875275-2.2002442 4.89875275-4.91941392c0-.45665446.3720572-.83028083.8267938-.83028083.4547365 0 .8269014.37362637.8269014.83028083.0205621 3.63247862-2.9352254 6.60073262-6.55244795 6.60073262z"/></g><g transform="translate(100.56292 6.153846)"><path d="m4.85741312 5.08547009c-1.6329176-.33211234-2.31502242-.60195361-2.31502242-1.26617827 0-.78876679 1.05416199-1.16239316 2.02564461-1.16239316 1.1988509 0 2.00497478.62271062 2.00497478 1.55677655v.08302809h2.27368274v-.10378511c0-1.78510378-1.3435398-3.69474969-4.27865752-3.69474969-2.56306053 0-4.29932735 1.32844933-4.29932735 3.27960928 0 2.42857143 2.12899383 3.05128205 4.13396861 3.44566544 2.08765415.41514042 2.50105101.85103785 2.50105101 1.41147741 0 1.01709402-1.26086043 1.36996337-2.33569227 1.36996337-1.11617152 0-2.29435257-.64346764-2.29435257-1.8058608v-.1037851h-2.27368274v.1037851c0 2.6984127 2.35636211 3.9230769 4.56803531 3.9230769 2.81109866 0 4.609375-1.3907204 4.609375-3.54945053-.02066984-2.42857143-1.96363509-3.00976801-4.31999719-3.48717948z"/><path d="m17.7347253 10.5238095v-4.23443221c0-.68498169-.2687079-2.88522589-3.6378923-2.88522589-2.108324 0-3.6792321 1.12087913-3.9066004 2.78144079l-.0206698.1037851h2.2736827l.0206699-.08302808c.1860285-.66422467.9921524-.95482296 1.6742572-.95482296.9094731 0 1.3848795.33211233 1.3848795.66422467 0 .53968254-.785454.7057387-2.2116732.85103785-1.6949271.14529914-3.41052408.56043956-3.41052408 2.55311355 0 1.88888888 1.69492718 2.73992678 3.38985428 2.73992678 1.0128223 0 1.839616-.2698413 2.4183716-.8095238.0413397.2490842.1033492.4358974.1860286.6019536l.0206698.062271h2.108324l-.0413396-.1245421c-.1240191-.2905983-.2480382-.8925519-.2480382-1.2661783zm-2.1289938-2.4285714v.58119658c0 1.22466422-1.5088985 1.36996332-2.1496637 1.36996332-.7647842 0-1.2608604-.26984122-1.2608604-.66422462 0-.47741148.4547365-.7057387 1.5709081-.83028083.8681334-.1037851 1.4262191-.22832723 1.839616-.45665445z"/><path d="m23.4809417 3.44566545c-.8474636 0-1.6535874.29059829-2.2736827.83028083v-4.27594628h-2.2943526v11.956044h2.1910034v-.7264958c.6407651.5811966 1.4675588.8925519 2.3770319.8925519 2.2116732 0 3.94794-1.9096459 3.94794-4.33821732s-1.7362668-4.33821733-3.94794-4.33821733zm-.2893778 2.11721611c1.1161715 0 1.9843049.97557998 1.9843049 2.24175824 0 1.22466423-.8681334 2.17948718-1.9843049 2.17948718-1.0955017 0-1.9843049-.97557997-1.9843049-2.17948718 0-1.24542124.8888032-2.24175824 1.9843049-2.24175824z"/><path d="m32.2862948 3.4041514c-2.3356922 0-4.2579876 1.97191698-4.2579876 4.37973138 0 2.38705742 1.9016255 4.33821732 4.2579876 4.33821732 1.9636351 0 3.5138734-1.1001221 4.0099496-2.84371182l.0413397-.12454213h-2.4183717l-.0206698.06227107c-.2893778.56043956-.9094731.89255188-1.6329176.89255188-.8888033 0-1.6122478-.53968253-1.9016256-1.4114774h6.0769339v-.08302809c.1446889-1.57753357-.2273683-2.92673992-1.0955017-3.88156288-.7441143-.87179487-1.839616-1.32844933-3.0591368-1.32844933zm-1.8602858 3.38339439c.3100476-.83028083 1.0128223-1.34920635 1.8602858-1.34920635.9094731 0 1.6122478.51892552 1.9016256 1.34920635z"/><path d="m42.2491592 3.44566545c-.9714826-.16605617-1.8809557.12454212-2.5217209.78876678v-.64346764h-2.1910033v8.32356531h2.2736827v-4.06837605c0-.58119659.0620095-1.24542125.4960762-1.70207571.3927271-.43589743.9921525-.58119658 1.9016256-.47741147l.1033492.02075702v-2.22100122z"/></g><g transform="translate(143.494184 6.672772)"><path d="m2.50105101 12.2466422c0 1.4737485-.72344451 2.6153847-2.50105101 2.4700855v-1.3284493c.39272702.041514.66143498-.0415141.86813341-.2283272.18602859-.1868132.2893778-.4981685.2893778-.934066v-9.34065931h1.3435398zm0-10.62759458h-1.3435398v-1.61904762h1.3435398z"/><path d="m10.8930073 11.1257631h-1.30220013v-.9133089c-.55808576.6642247-1.38487948 1.0793651-2.39770179 1.0793651-2.00497477 0-3.16248599-1.43223444-3.16248599-3.46642247v-4.94017094h1.3435398v5.02319902c0 1.30769231.72344451 2.17948719 2.02564462 2.17948719 1.21952074 0 2.12899384-.91330893 2.12899384-2.13797315v-5.06471306h1.36420965z"/><path d="m20.0084081 10.7313797c0 2.6361417-1.6949272 4.4420025-4.216648 4.4420025-1.9429653 0-3.4518638-1.0378511-3.8652607-2.7191697h1.4262192c.5374159 1.2246642 1.839616 1.4114774 2.4597113 1.4114774 2.108324 0 2.8731082-1.6398047 2.8731082-3.1135531v-.87179492c-.5994254.80952382-1.6122477 1.45299142-2.7904288 1.45299142-2.3563621 0-4.1132988-1.9304029-4.1132988-4.31746028 0-2.38705739 1.7569367-4.33821734 4.1132988-4.33821734 1.2195207 0 2.2530129.68498168 2.8317685 1.51526251v-1.3076923h1.3022001v7.84615381zm-4.1339686-6.80830278c-1.5502383 0-2.7490892 1.36996337-2.7490892 3.0927961 0 1.68131868 1.2195208 3.05128208 2.7490892 3.05128208 1.5088985 0 2.7904288-1.3699634 2.7904288-3.05128208 0-1.70207571-1.2815303-3.0927961-2.7904288-3.0927961z"/><path d="m26.8501261 10.1709402c-.5994254.7264957-1.5502382 1.1416361-2.8110986 1.1416361-1.6949272 0-3.2038257-.7680098-3.2038257-2.55311354 0-1.7020757 1.2195207-2.47008547 3.3485146-2.57387057 2.0049747-.10378511 2.6664097-.45665446 2.6664097-1.12087913 0-.66422466-.6200953-1.14163614-2.0049748-1.14163614-.8681334 0-1.9843049.26984127-2.1289938 1.47374848h-1.4055493c.1033492-1.63980464 1.446889-2.71916972 3.555213-2.71916972 2.1910034 0 3.3071749 1.01709401 3.3071749 2.55311355v4.54578755c0 .41514042.1033492 1.01709402.2480381 1.34920632h-1.3435398c-.1240191-.2490842-.2066984-.5604395-.2273683-.9548229zm-.0206698-3.48717952c-.5374159.47741148-1.5088986.60195361-2.4803812.66422467-1.7776065.1037851-2.1910034.72649572-2.1910034 1.43223443 0 .89255189.8681335 1.28693532 1.9016256 1.28693532 1.4055493 0 2.7284193-.60195363 2.7490891-2.09645913v-1.28693529z"/><path d="m33.5058156 4.02686203c-1.4262192-.08302809-2.6250701.66422466-2.6250701 2.32478632v4.77411475h-1.3642096v-8.24053721h1.3022001v.93406593c.6200953-.87179487 1.7362668-1.22466423 2.6664097-1.12087912v1.32844933z"/></g></g></g></g></svg>