<?xml version="1.0" encoding="utf-8"?>
<!-- Generator: Adobe Illustrator 21.0.0, SVG Export Plug-In . SVG Version: 6.00 Build 0)  -->
<svg version="1.1" id="Layer_1" xmlns="http://www.w3.org/2000/svg" xmlns:xlink="http://www.w3.org/1999/xlink" x="0px" y="0px"
	 viewBox="0 0 200 200" style="enable-background:new 0 0 200 200;" xml:space="preserve">
<style type="text/css">
	.st0{fill:#569C29;}
	.st1{fill:#DA3719;}
	.st2{fill:#44A1D6;}
	.st3{fill:#893B89;}
	.st4{clip-path:url(#SVGID_2_);fill:url(#SVGID_3_);}
	.st5{clip-path:url(#SVGID_5_);fill:url(#SVGID_6_);}
	.st6{clip-path:url(#SVGID_8_);fill:url(#SVGID_9_);}
	.st7{clip-path:url(#SVGID_12_);fill:url(#SVGID_13_);}
	.st8{clip-path:url(#SVGID_15_);fill:#364F9A;}
	.st9{clip-path:url(#SVGID_17_);fill:#D2121C;}
	.st10{clip-path:url(#SVGID_19_);fill:#502573;}
	.st11{fill:#5C6921;}
	.st12{fill:#826CA9;}
	.st13{fill:#4E8DC6;}
	.st14{fill:#A3C328;}
	.st15{opacity:0.8;}
	.st16{clip-path:url(#SVGID_21_);fill:url(#SVGID_22_);}
	.st17{opacity:0.3;clip-path:url(#SVGID_21_);fill:url(#SVGID_23_);}
	.st18{opacity:0.4;clip-path:url(#SVGID_21_);fill:url(#SVGID_24_);}
</style>
<g>
	<path class="st0" d="M68.7,40.2c3-1.1,8.6-3.7,11.8-6.6c3.2-2.9,12.5-8.9,26.6-5.4c4.1,1.1,13.5,5.6,15.4,13.4
		c3.4,13.8-7,44.2-24.6,52c-14.6,6.5-52-4.5-65.2-18.1c-9.3-9.6-1.9-23.5,7.4-28.3c4.5-2.4,6.8-3.5,16.9-4.1
		C61.7,42.7,65.5,41.3,68.7,40.2z"/>
	<path class="st1" d="M97.7,93.4c-7.5-15.3,12.8-44.2,24.9-51.9c6.2-4,25.9-10.1,38.4,4.4c4.3,5,1.7,11,6.9,19.1
		c6.1,9.3,12.2,10.5,15.7,14.8c11.3,14.1-0.8,29.8-16.2,32.8C144.4,117.2,103.4,105.2,97.7,93.4z"/>
	<path class="st2" d="M97.8,93.5c11-4.6,44.7-1.1,69.2,19.1c7.3,6,12.2,22.4-1.5,33.7c-4.3,3.5-10.6,5.6-18.8,5.8
		c-4.2,0.1-9.4,1.3-16.1,4.1c-9.7,4.1-13,9.7-17.5,12.5c-18.5,11.6-42.1-1.2-43.4-16C67,121.6,88.2,97.6,97.8,93.5z"/>
	<path class="st3" d="M97.7,93.6c1.1,2.4,2.3,4.8,2.2,8c-0.2,14.7-15,40.3-30.1,51c-18.1,12.8-38.8,3.9-43.5-8.9
		c-2.6-7.3,2-7.5-2.8-20.6c-3.6-9.9-10.7-11.1-13.3-17.7c-5.8-14.7,9.2-27.5,22.8-29.8C53,72,92.6,82,97.7,93.6z"/>
	<g>
		<defs>
			<path id="SVGID_1_" d="M97.7,93.6c1.1,2.4,2.3,4.8,2.2,8c-0.2,14.7-15,40.3-30.1,51c-18.1,12.8-38.8,3.9-43.5-8.9
				c-2.6-7.3,2-7.5-2.8-20.6c-3.6-9.9-10.7-11.1-13.3-17.7c-5.8-14.7,9.2-27.5,22.8-29.8C53,72,92.6,82,97.7,93.6z"/>
		</defs>
		<clipPath id="SVGID_2_">
			<use xlink:href="#SVGID_1_"  style="overflow:visible;"/>
		</clipPath>
		
			<linearGradient id="SVGID_3_" gradientUnits="userSpaceOnUse" x1="-317.6643" y1="-182.7379" x2="-317.6643" y2="-218.2589" gradientTransform="matrix(1.1091 2.858 -2.2943 0.8903 -41.463 1217.6359)">
			<stop  offset="0.2577" style="stop-color:#873888"/>
			<stop  offset="1" style="stop-color:#BF88B7"/>
		</linearGradient>
		<polygon class="st4" points="34.1,169.2 16.9,125 98.4,93.3 115.5,137.5 		"/>
	</g>
	<g>
		<defs>
			<path id="SVGID_4_" d="M97.8,93.5c11-4.6,44.7-1.1,69.2,19.1c7.3,6,12.2,22.4-1.5,33.7c-4.3,3.5-10.6,5.6-18.8,5.8
				c-4.2,0.1-9.4,1.3-16.1,4.1c-9.7,4.1-13,9.7-17.5,12.5c-18.5,11.6-42.1-1.2-43.4-16C67,121.6,88.2,97.6,97.8,93.5z"/>
		</defs>
		<clipPath id="SVGID_5_">
			<use xlink:href="#SVGID_4_"  style="overflow:visible;"/>
		</clipPath>
		
			<linearGradient id="SVGID_6_" gradientUnits="userSpaceOnUse" x1="184.1906" y1="72.7908" x2="184.1906" y2="38.6996" gradientTransform="matrix(3.2782 -1.6017 1.051 2.1511 -522.4272 291.4325)">
			<stop  offset="0.2515" style="stop-color:#44A1D6"/>
			<stop  offset="0.2761" style="stop-color:#48A5D8"/>
			<stop  offset="1" style="stop-color:#83C6EA"/>
		</linearGradient>
		<polygon class="st5" points="183.2,140.3 132.3,165.5 97,91.9 147.6,67.2 		"/>
	</g>
	<g>
		<defs>
			<path id="SVGID_7_" d="M97.7,93.4c-7.5-15.3,12.8-44.2,24.9-51.9c6.2-4,25.9-10.1,38.4,4.4c4.3,5,1.7,11,6.9,19.1
				c6.1,9.3,12.2,10.5,15.7,14.8c11.3,14.1-0.8,29.8-16.2,32.8C144.4,117.2,103.4,105.2,97.7,93.4z"/>
		</defs>
		<clipPath id="SVGID_8_">
			<use xlink:href="#SVGID_7_"  style="overflow:visible;"/>
		</clipPath>
		<linearGradient id="SVGID_9_" gradientUnits="userSpaceOnUse" x1="170.3213" y1="40.1517" x2="89.3364" y2="72.8717">
			<stop  offset="0.3804" style="stop-color:#DB3D18"/>
			<stop  offset="1" style="stop-color:#EC8825;stop-opacity:0.51"/>
		</linearGradient>
		<polygon class="st6" points="178.5,60.8 162.5,20.9 81,52.2 97.7,93.6 130.9,80.1 163.9,66.8 		"/>
	</g>
	<g>
		<defs>
			<path id="SVGID_10_" d="M68.7,40.2c3-1.1,8.6-3.7,11.8-6.6c3.2-2.9,12.5-8.9,26.6-5.4c4.1,1.1,13.5,5.6,15.4,13.4
				c3.4,13.8-7,44.2-24.6,52c-14.6,6.5-52-4.5-65.2-18.1c-9.3-9.6-1.9-23.5,7.4-28.3c4.5-2.4,6.8-3.5,16.9-4.1
				C61.7,42.7,65.5,41.3,68.7,40.2z"/>
		</defs>
		<linearGradient id="SVGID_11_" gradientUnits="userSpaceOnUse" x1="28.4237" y1="61.2318" x2="123.1356" y2="61.2318">
			<stop  offset="0.3374" style="stop-color:#569C29"/>
			<stop  offset="1" style="stop-color:#B1C718"/>
		</linearGradient>
		<use xlink:href="#SVGID_10_"  style="overflow:visible;fill:url(#SVGID_11_);"/>
		<clipPath id="SVGID_12_">
			<use xlink:href="#SVGID_10_"  style="overflow:visible;"/>
		</clipPath>
		
			<linearGradient id="SVGID_13_" gradientUnits="userSpaceOnUse" x1="-377.252" y1="-553.7575" x2="-377.252" y2="-592.558" gradientTransform="matrix(-2.7784 1.508 -0.8253 -1.5205 -1416.4586 -247.0521)">
			<stop  offset="0.3374" style="stop-color:#569C29"/>
			<stop  offset="1" style="stop-color:#B1C718"/>
		</linearGradient>
		<polygon class="st7" points="68.5,37 111.1,16.4 140.9,74.1 98.2,94.3 		"/>
	</g>
	<g>
		<defs>
			<path id="SVGID_14_" d="M97.8,93.5c11-4.6,44.7-1.1,69.2,19.1c7.3,6,12.2,22.4-1.5,33.7c-4.3,3.5-10.6,5.6-18.8,5.8
				c-4.2,0.1-9.4,1.3-16.1,4.1c-9.7,4.1-13,9.7-17.5,12.5c-18.5,11.6-42.1-1.2-43.4-16C67,121.6,88.2,97.6,97.8,93.5z"/>
		</defs>
		<clipPath id="SVGID_15_">
			<use xlink:href="#SVGID_14_"  style="overflow:visible;"/>
		</clipPath>
		<path class="st8" d="M98.5,95.1C90,77.8,113,45.3,126.6,36.6c7-4.5,29.3-11.4,43.4,5c4.9,5.7,1.9,12.4,7.8,21.6
			c6.8,10.5,13.7,11.8,17.7,16.7c12.8,15.9-0.9,33.6-18.3,37C151.2,122,105,108.5,98.5,95.1z"/>
		<path class="st8" d="M98.2,93.6c1.2,2.8,2.7,5.7,2.6,9.4c-0.2,17.4-17.7,47.6-35.6,60.2c-21.4,15.1-45.8,4.7-51.3-10.5
			c-3.1-8.6,2.3-8.9-3.3-24.3C6.5,116.7-1.9,115.4-5,107.6c-6.9-17.3,10.9-32.4,26.9-35.2C45.5,68.2,92.2,80,98.2,93.6z"/>
	</g>
	<g>
		<defs>
			<path id="SVGID_16_" d="M97.7,93.4c-7.5-15.3,12.8-44.2,24.9-51.9c6.2-4,25.9-10.1,38.4,4.4c4.3,5,1.7,11,6.9,19.1
				c6.1,9.3,12.2,10.5,15.7,14.8c11.3,14.1-0.8,29.8-16.2,32.8C144.4,117.2,103.4,105.2,97.7,93.4z"/>
		</defs>
		<clipPath id="SVGID_17_">
			<use xlink:href="#SVGID_16_"  style="overflow:visible;"/>
		</clipPath>
		<path class="st9" d="M63.2,30.3c3.6-1.3,10.3-4.4,14.1-7.9c3.8-3.5,15-10.6,31.7-6.5c4.9,1.3,16.1,6.7,18.4,16
			c4.1,16.5-8.4,52.8-29.4,62.1c-17.4,7.8-62.1-5.3-77.9-21.6C9,60.8,18,44.3,29,38.5c5.4-2.8,8.1-4.1,20.2-4.9
			C54.8,33.3,59.4,31.6,63.2,30.3z"/>
	</g>
	<g>
		<defs>
			<path id="SVGID_18_" d="M97.7,93.6c1.1,2.4,2.3,4.8,2.2,8c-0.2,14.7-15,40.3-30.1,51c-18.1,12.8-38.8,3.9-43.5-8.9
				c-2.6-7.3,2-7.5-2.8-20.6c-3.6-9.9-10.7-11.1-13.3-17.7c-5.8-14.7,9.2-27.5,22.8-29.8C53,72,92.6,82,97.7,93.6z"/>
		</defs>
		<clipPath id="SVGID_19_">
			<use xlink:href="#SVGID_18_"  style="overflow:visible;"/>
		</clipPath>
		<path class="st10" d="M63.2,30.3c3.6-1.3,10.3-4.4,14.1-7.9c3.8-3.5,15-10.6,31.7-6.5c4.9,1.3,16.1,6.7,18.4,16
			c4.1,16.5-8.4,52.8-29.4,62.1c-17.4,7.8-62.1-5.3-77.9-21.6C9,60.8,18,44.3,29,38.5c5.4-2.8,8.1-4.1,20.2-4.9
			C54.8,33.3,59.4,31.6,63.2,30.3z"/>
	</g>
	<path class="st11" d="M122.5,41.6c-12.1,7.7-32.3,36.5-24.8,51.8c0,0.1,0.1,0.1,0.1,0.2c0.1,0,0.1,0,0.2-0.1
		C115.5,85.7,125.9,55.4,122.5,41.6z"/>
	<path class="st12" d="M100,101.6c0-3.2-1.2-5.6-2.2-8c-9.7,4.1-30.7,28.1-28.1,59.1c0.1,0,0.1-0.1,0.2-0.1
		C85,141.9,99.8,116.3,100,101.6z"/>
	<path class="st13" d="M167.1,112.7C167.1,112.7,167.1,112.7,167.1,112.7C142.5,92.4,108.8,89,97.8,93.5c0,0,0,0-0.1,0
		C103.8,105.3,144.2,117.1,167.1,112.7z"/>
	<path class="st14" d="M97.7,93.5C92.6,82,53,72,33.1,75.5c-0.1,0-0.1,0-0.2,0C46.3,89.1,83.1,99.8,97.7,93.5z"/>
	<g class="st15">
		<defs>
			<path id="SVGID_20_" class="st15" d="M183.5,79.9c-3.5-4.3-9.6-5.5-15.7-14.8C162.6,57,165.3,51,161,46
				c-12.5-14.5-32.2-8.4-38.4-4.4c0,0,0,0,0,0c0,0,0,0,0-0.1c-1.9-7.8-11.3-12.3-15.4-13.4c-14-3.4-23.4,2.5-26.6,5.4
				c-3.2,2.9-8.8,5.5-11.8,6.6c-3.2,1.1-7,2.6-11.7,2.8c-10.1,0.6-12.3,1.7-16.9,4.1c-9.2,4.8-16.7,18.6-7.4,28.3
				c0.1,0.1,0.1,0.1,0.2,0.2C19.4,78,4.5,90.8,10.3,105.4c2.6,6.6,9.7,7.8,13.3,17.7c4.7,13,0.1,13.3,2.8,20.6
				c4.6,12.8,25.2,21.6,43.3,9c0,0,0,0.1,0,0.1c1.3,14.7,24.9,27.5,43.4,16c4.5-2.8,7.9-8.4,17.5-12.5c6.7-2.8,11.9-4,16.1-4.1
				c8.2-0.2,14.6-2.2,18.8-5.8c13.7-11.3,8.8-27.6,1.5-33.6c0.1,0,0.2,0,0.2,0C182.8,109.6,194.9,94,183.5,79.9z"/>
		</defs>
		<clipPath id="SVGID_21_">
			<use xlink:href="#SVGID_20_"  style="overflow:visible;"/>
		</clipPath>
		
			<radialGradient id="SVGID_22_" cx="39.0024" cy="22.1506" r="40.6307" fx="23.7248" fy="19.3141" gradientTransform="matrix(1.8727 0 0 1.8727 26.3365 56.3555)" gradientUnits="userSpaceOnUse">
			<stop  offset="0.3865" style="stop-color:#FFFFFF"/>
			<stop  offset="1" style="stop-color:#FFFFFF;stop-opacity:0"/>
		</radialGradient>
		<path class="st16" d="M190,98.7C190,46,147.4,3.4,94.7,3.4C42.1,3.4-0.6,46-0.6,98.7c0,52.6,42.7,95.3,95.3,95.3
			C147.4,194,190,151.3,190,98.7z"/>
		
			<radialGradient id="SVGID_23_" cx="39.0024" cy="22.1506" r="40.6307" fx="23.7248" fy="19.3141" gradientTransform="matrix(1.8727 0 0 1.8727 26.3365 56.3555)" gradientUnits="userSpaceOnUse">
			<stop  offset="0.3865" style="stop-color:#FFFFFF"/>
			<stop  offset="1" style="stop-color:#FFFFFF;stop-opacity:0"/>
		</radialGradient>
		<path class="st17" d="M190,98.7C190,46,147.4,3.4,94.7,3.4C42.1,3.4-0.6,46-0.6,98.7c0,52.6,42.7,95.3,95.3,95.3
			C147.4,194,190,151.3,190,98.7z"/>
		
			<radialGradient id="SVGID_24_" cx="52.5308" cy="15.0648" r="31.0858" fx="51.8014" fy="14.8113" gradientTransform="matrix(1.8727 0 0 1.8727 26.3365 56.3555)" gradientUnits="userSpaceOnUse">
			<stop  offset="0.3804" style="stop-color:#FFFFFF"/>
			<stop  offset="1" style="stop-color:#FFFFFF;stop-opacity:0"/>
		</radialGradient>
		<path class="st18" d="M201.8,123.5c0-52.6-42.7-95.3-95.3-95.3c-52.6,0-95.3,42.7-95.3,95.3c0,52.6,42.7,95.3,95.3,95.3
			C159.1,218.8,201.8,176.2,201.8,123.5z"/>
	</g>
</g>
</svg>
