<?xml version="1.0" encoding="UTF-8"?>
<svg width="39px" height="39px" viewBox="0 0 39 39" version="1.1" xmlns="http://www.w3.org/2000/svg" xmlns:xlink="http://www.w3.org/1999/xlink">
    <!-- Generator: sketchtool 56.3 (101010) - https://sketch.com -->
    <title>3B041232-D74E-4C7E-A97C-E064C8223FA9</title>
    <desc>Created with sketchtool.</desc>
    <g id="Symbols" stroke="none" stroke-width="1" fill="none" fill-rule="evenodd">
        <g id="Footer" transform="translate(-979.000000, -55.000000)" fill="#FFFFFF" fill-rule="nonzero">
            <g id="ZSO_Logo_SVG" transform="translate(979.000000, 55.000000)">
                <g id="Group" transform="translate(6.000000, 14.000000)">
                    <polygon id="Path" points="5.32459016 0.192857143 5.32459016 11.7107143 2.46721311 11.7107143 2.46721311 2.33571429 0 2.33571429 0 0.192857143"></polygon>
                    <path d="M17.3163934,6.78214286 C17.6377049,7.24285714 17.7983607,7.77857143 17.7983607,8.37857143 C17.7983607,9.09642857 17.5803279,9.71785714 17.1442623,10.2428571 C16.7081967,10.7785714 16.1,11.1857143 15.3081967,11.475 C14.5163934,11.7642857 13.6098361,11.9142857 12.5770492,11.9142857 C11.5442623,11.9142857 10.6377049,11.7642857 9.85737705,11.475 C9.07704918,11.1857143 8.46885246,10.7678571 8.0442623,10.2428571 C7.61967213,9.70714286 7.40163934,9.08571429 7.40163934,8.37857143 C7.40163934,7.77857143 7.56229508,7.24285714 7.88360656,6.78214286 C8.20491803,6.32142857 8.66393443,5.94642857 9.27213115,5.66785714 C8.81311475,5.4 8.45737705,5.06785714 8.21639344,4.67142857 C7.97540984,4.275 7.84918033,3.81428571 7.84918033,3.3 C7.84918033,2.63571429 8.0442623,2.04642857 8.44590164,1.55357143 C8.84754098,1.06071429 9.39836066,0.675 10.1213115,0.407142857 C10.8327869,0.139285714 11.6590164,-2.84217094e-14 12.5885246,-2.84217094e-14 C13.5295082,-2.84217094e-14 14.3557377,0.139285714 15.0786885,0.407142857 C15.8016393,0.675 16.3639344,1.06071429 16.7655738,1.55357143 C17.1672131,2.04642857 17.3622951,2.625 17.3622951,3.3 C17.3622951,3.81428571 17.2360656,4.275 16.995082,4.67142857 C16.742623,5.06785714 16.3868852,5.4 15.9163934,5.66785714 C16.5245902,5.94642857 16.995082,6.32142857 17.3163934,6.78214286 Z M14.2868852,9.50357143 C14.7,9.20357143 14.9180328,8.79642857 14.9180328,8.29285714 C14.9180328,7.78928571 14.7114754,7.39285714 14.2868852,7.09285714 C13.8737705,6.79285714 13.3,6.65357143 12.5885246,6.65357143 C11.8885246,6.65357143 11.3262295,6.80357143 10.9131148,7.09285714 C10.5,7.39285714 10.2934426,7.78928571 10.2934426,8.29285714 C10.2934426,8.80714286 10.5,9.21428571 10.9131148,9.51428571 C11.3262295,9.81428571 11.8770492,9.95357143 12.5885246,9.95357143 C13.3,9.95357143 13.8737705,9.80357143 14.2868852,9.50357143 Z M11.2,2.34642857 C10.8557377,2.60357143 10.6836066,2.95714286 10.6836066,3.40714286 C10.6836066,3.84642857 10.8557377,4.18928571 11.2,4.44642857 C11.5442623,4.70357143 12.0032787,4.82142857 12.5885246,4.82142857 C13.1737705,4.82142857 13.6442623,4.69285714 14,4.44642857 C14.3557377,4.18928571 14.5278689,3.84642857 14.5278689,3.40714286 C14.5278689,2.95714286 14.3557377,2.60357143 14,2.34642857 C13.6442623,2.08928571 13.1737705,1.96071429 12.5885246,1.96071429 C12.0147541,1.96071429 11.5557377,2.08928571 11.2,2.34642857 Z" id="Shape"></path>
                    <polygon id="Path" points="27.8967213 6.96428571 24.8327869 6.96428571 24.8327869 9.76071429 22.5606557 9.76071429 22.5606557 6.96428571 19.5081967 6.96428571 19.5081967 4.96071429 22.5606557 4.96071429 22.5606557 2.16428571 24.8327869 2.16428571 24.8327869 4.96071429 27.8967213 4.96071429"></polygon>
                </g>
                <path d="M19.5,39 C8.74926686,39 0,30.2507331 0,19.5 C0,8.74926686 8.74926686,0 19.5,0 C30.2507331,0 39,8.74926686 39,19.5 C39,30.2507331 30.2507331,39 19.5,39 Z M19.5,2.23020528 C9.97302053,2.23020528 2.23020528,9.98445748 2.23020528,19.5 C2.23020528,29.0155425 9.98445748,36.7697947 19.5,36.7697947 C29.0269795,36.7697947 36.7697947,29.0155425 36.7697947,19.5 C36.7697947,9.98445748 29.0269795,2.23020528 19.5,2.23020528 Z" id="Shape"></path>
            </g>
        </g>
    </g>
</svg>
